<?xml version="1.0" encoding="UTF-8"?>
<svg id="Layer_1" data-name="Layer 1" xmlns="http://www.w3.org/2000/svg" viewBox="0 0 2048 2048">
  <defs>
    <style>
      .cls-1 {
        fill: #fff8f8;
      }

      .cls-2 {
        fill: #cf4545;
      }
    </style>
  </defs>
  <rect class="cls-2" width="2048" height="2048"/>
  <path class="cls-1" d="M623.1,839.06v370.67H252.43v-370.67h370.67ZM586.35,875.81h-297.17v297.17h297.17v-297.17Z"/>
  <path class="cls-1" d="M1453.9,908.56l29.55.81.4,6.38c13.43-12.04,35.91-11.49,49.52.02,1.79,1.52,5.83,7.19,7.2,7.18,11.63-20.69,43.91-20.8,58.7-3.58,4.39,5.11,9.61,16.42,9.61,23.14v63.51h-30.36v-58.72c0-3.2-4.14-8.93-6.92-10.65-4.16-2.57-12.5-2.49-16.8-.3-1.76.9-8.23,6.9-8.23,8.55v61.11h-30.36v-57.92c0-.27-1.17-4.36-1.42-4.97-3.93-9.64-16.79-10.78-24.54-5.01-1.08.8-5.99,5.88-5.99,6.79v61.11h-30.36v-97.46Z"/>
  <path class="cls-1" d="M960.21,1041.97v46.33c29.2-21.71,68.3-.39,72.6,34.04,5.3,42.44-36.59,75.22-73.39,49.04v7.19h-29.57v-136.6h30.36ZM974.38,1107.67c-4.43.75-12.48,5.68-13.81,10.16-.78,2.62-.83,21.41-.2,24.23,1.39,6.14,11.97,10.6,17.77,10.98,33.66,2.2,32.55-51.5-3.77-45.37Z"/>
  <path class="cls-1" d="M963.01,1006.02c-.39-.12-.94-.87-1.08-1.33-.68-2.1,1.56-5.07-.5-5.05-33.07,24.31-75.69-7.19-73.01-45.84,2.42-34.79,43.3-61.47,72.99-38.06l.39-6.38c10.02-.89,20.38-1.55,30.36,0v95.46l-1.2,1.2h-27.96ZM936.04,935.11c-20.13,3.4-22.98,35.88-4.02,43.58,9.57,3.89,23.96,1.64,29.26-7.97l-.18-26.63c-4.86-8.08-16.27-10.47-25.06-8.98Z"/>
  <path class="cls-1" d="M889.11,1179.37l.8-6.38c-4.12.91-6.94,4.34-11.19,5.97-29.48,11.3-61.41-14.85-63.13-44.69-2.04-35.36,34.35-66.57,67.67-49.29,2.09,1.08,4.1,3.43,5.47,4.12,1.67.84.75-.9.78-1.19.14-1.69.19-3.54-.39-5.18l28.55-.65,1.73,1.15-.73,96.16h-29.56ZM868.74,1107.93c-30.6.3-29.51,47.37,1.62,45.92,4.33-.2,15.6-4.16,17.36-8.23.97-2.25,1.1-23.99.64-27.4-.9-6.73-13.77-10.34-19.61-10.29Z"/>
  <path class="cls-1" d="M1717.53,966.08h-68.7c9.11,20.1,38.04,19.24,51.92,4.8l11.77,23.57c-23.92,22.14-71.56,17.45-88.06-11.58-16.06-28.27-1.48-65.28,29.98-73.9,37.67-10.32,69.53,19.13,63.1,57.11ZM1648.82,944.51h39.94c-4.46-19.42-34.07-17.99-39.94,0Z"/>
  <path class="cls-1" d="M1186.29,1138.63h-69.5c9.45,19.51,36.98,19.44,51.44,5.63l12.35,22.61c-29.1,27.38-90.45,13.33-94.17-30.21-5.33-62.3,78.16-77.61,96.7-26.4.75,2.08,3.18,9.55,3.18,11.19v17.18ZM1156.73,1117.06c-3.57-19.43-34.66-18.29-39.14,0h39.14Z"/>
  <path class="cls-1" d="M1313.94,907.2c74.82-6.75,78.22,101.87,5.29,101.08-68.18-.74-70.88-95.16-5.29-101.08ZM1314.71,935.13c-8.46,1.24-16.24,9.33-17.3,17.86-4.17,33.86,39.45,35.41,43.78,10.23,3.01-17.45-8.54-30.71-26.49-28.09Z"/>
  <polygon class="cls-1" points="836.39 871.02 836.39 899.77 792.45 899.77 792.45 1006.02 760.5 1006.02 760.5 899.77 716.56 899.77 716.56 871.02 836.39 871.02"/>
  <polygon class="cls-1" points="836.39 1043.57 836.39 1072.33 792.45 1072.33 792.45 1178.57 760.5 1178.57 760.5 1072.33 716.56 1072.33 716.56 1043.57 836.39 1043.57"/>
  <path class="cls-1" d="M1097.61,1006.02h-30.36v-60.31c0-1.44-3.49-6.79-4.84-7.94-5.26-4.5-14.57-3.9-20.19-.32-1.51.97-6.92,6.97-6.92,8.26v60.31h-30.36v-97.46h29.55s.02,7.99.02,7.99c18.68-17.22,50.27-10.64,60.05,13.04.75,1.83,3.05,8.23,3.05,9.73v66.7Z"/>
  <path class="cls-1" d="M1188.68,909.36c6.32-1.9,12.98.19,19.18-.81-2.28-30.11,23.42-45.21,51.16-39.58,3.18.65,18.54,6,18.21,9.48l-11.07,22.12c-9.13-9.29-29.26-8.41-27.86,7.91l28.67.88v24.37l-1.2,1.2h-27.56v71.1h-30.36l-1.2-71.1h-16.78l-1.2-1.2v-24.37Z"/>
  <path class="cls-1" d="M1181.39,916.67l-11.09,23.85c-4.9-6.08-26.69-13.52-31.19-6.05-5.41,8.98,15.67,10.77,20.65,12.21,11.16,3.22,22.92,10.65,24.73,23.2,5.64,39.04-41.12,44.39-67.98,32.83-2.11-.91-11.75-5.56-11.36-7.91l12.05-22.32c8,7.31,22.26,13.62,33.17,10.79,3.36-.87,5.96-4.11,4.37-7.59-2.17-4.74-19.1-7.55-24.57-9.8-16.14-6.62-26.37-20.65-19.66-38.45,9.57-25.36,51.98-24.83,70.89-10.77Z"/>
  <rect class="cls-1" x="1045.69" y="1041.97" width="30.36" height="136.6"/>
  <path class="cls-1" d="M1728.71,909.76c.18-.58,1.27-1.27,2-1.2l29.07.89.09,7.9c11.43-5.04,23.57-3.73,35.15.01l-11.22,27.15c-9.56-4.21-18.74.11-23.17,9.16l-1.56,52.36h-30.36v-96.26Z"/>
  <path class="cls-1" d="M1411.56,908.56v8.78c11.22-4.18,25.3-5.3,35.88,1.19l-11.12,25.98c-6.88-3.12-15.91-1.51-20.78,4.38-.75.91-3.98,7.29-3.98,8v49.13h-30.36v-96.66c.78.26,1.73-.8,2-.8h28.36Z"/>
  <path class="cls-1" d="M857.16,908.56v8.78c11.22-4.18,25.3-5.3,35.88,1.19l-11.88,25.63c-6.86-2.74-15.89-.88-20.35,5.19-.66.9-3.65,6.93-3.65,7.54v49.13h-30.36v-97.46h30.36Z"/>
  <polygon class="cls-1" points="548.8 950.9 548.8 987.65 512.05 987.65 512.05 1098.69 475.31 1098.69 475.31 987.65 400.21 987.65 400.21 1098.69 364.27 1098.69 364.27 987.65 326.72 987.65 326.72 950.9 548.8 950.9"/>
</svg>